<svg width="70" height="70" viewBox="0 0 70 70" fill="none" xmlns="http://www.w3.org/2000/svg">
<g clip-path="url(#clip0_5_10)">
<path d="M24.3852 2.30235C17.3911 4.72866 11.3595 9.33388 7.17612 15.4416C2.99279 21.5493 0.878311 28.8375 1.14328 36.2358C1.40824 43.634 4.03868 50.7523 8.64823 56.5451C13.2578 62.3379 19.6035 66.4998 26.7532 68.4195C32.5497 69.9152 38.6226 69.9809 44.4501 68.6109C49.7292 67.4251 54.6098 64.8887 58.6141 61.25C62.7818 57.3472 65.8068 52.3823 67.3641 46.8891C69.0568 40.9154 69.358 34.6332 68.2446 28.525H35.6946V42.0274H54.5454C54.1686 44.1809 53.3613 46.2363 52.1717 48.0705C50.9821 49.9047 49.4346 51.4801 47.622 52.7024C45.3201 54.225 42.7252 55.2495 40.004 55.7102C37.2748 56.2176 34.4754 56.2176 31.7462 55.7102C28.98 55.1383 26.3633 53.9966 24.0626 52.3578C20.3665 49.7415 17.5913 46.0246 16.1329 41.7375C14.6498 37.3701 14.6498 32.6353 16.1329 28.268C17.171 25.2067 18.8871 22.4193 21.1532 20.1141C23.7464 17.4275 27.0295 15.5072 30.6423 14.5637C34.2551 13.6202 38.058 13.6901 41.6337 14.7656C44.4269 15.6231 46.9813 17.1212 49.093 19.1406C51.2186 17.026 53.3404 14.906 55.4587 12.7805C56.5524 11.6375 57.7446 10.5492 58.822 9.37891C55.5985 6.37917 51.8147 4.045 47.6876 2.51016C40.1719 -0.218801 31.9484 -0.292139 24.3852 2.30235Z" fill="white"/>
<path d="M24.3851 2.30232C31.9476 -0.29393 40.1711 -0.222522 47.6874 2.50466C51.8153 4.04993 55.5973 6.39534 58.8163 9.40623C57.7226 10.5765 56.5687 11.6703 55.453 12.8078C53.3312 14.926 51.2111 17.037 49.0929 19.1406C46.9811 17.1212 44.4268 15.6231 41.6335 14.7656C38.059 13.6863 34.2563 13.6124 30.6425 14.552C27.0288 15.4916 23.7436 17.4084 21.1476 20.0922C18.8815 22.3974 17.1654 25.1848 16.1272 28.2461L4.79053 19.4687C8.84838 11.4218 15.8743 5.26651 24.3851 2.30232Z" fill="#E33629"/>
<path d="M1.7826 28.1641C2.39194 25.1442 3.40356 22.2197 4.79041 19.4688L16.1271 28.268C14.6441 32.6353 14.6441 37.3701 16.1271 41.7375C12.35 44.6542 8.57114 47.5854 4.79041 50.5313C1.31858 43.6205 0.259733 35.7465 1.7826 28.1641Z" fill="#F8BD00"/>
<path d="M35.6943 28.5195H68.2443C69.3577 34.6278 69.0565 40.9099 67.3639 46.8836C65.8066 52.3768 62.7815 57.3417 58.6139 61.2445C54.9553 58.3898 51.2803 55.557 47.6217 52.7023C49.4355 51.4789 50.9837 49.9018 52.1734 48.0656C53.363 46.2294 54.1697 44.1719 54.5451 42.0164H35.6943C35.6889 37.5211 35.6943 33.0203 35.6943 28.5195Z" fill="#587DBD"/>
<path d="M4.78516 50.5313C8.56589 47.6146 12.3448 44.6834 16.1219 41.7375C17.5832 46.0261 20.3624 49.7432 24.0625 52.3579C26.3704 53.989 28.9927 55.1214 31.7625 55.6829C34.4917 56.1903 37.2911 56.1903 40.0203 55.6829C42.7415 55.2222 45.3364 54.1977 47.6383 52.675C51.2969 55.5297 54.9719 58.3626 58.6305 61.2172C54.6267 64.8579 49.746 67.3963 44.4664 68.5836C38.639 69.9536 32.566 69.8879 26.7695 68.3922C22.1851 67.1682 17.9029 65.0103 14.1914 62.054C10.263 58.9351 7.05444 55.0046 4.78516 50.5313Z" fill="#319F43"/>
</g>
<defs>
<clipPath id="clip0_5_10">
<rect width="70" height="70" fill="white"/>
</clipPath>
</defs>
</svg>
