<svg xmlns="http://www.w3.org/2000/svg" viewBox="0 0 48 48" width="48" height="48">
  <path fill="#FFC107" d="M43.6 20.5H42V20H24v8h11.3c-1.6 4.6-6 8-11.3 8-6.9 0-12.5-5.6-12.5-12.5S17.1 11 24 11c3.2 0 6.2 1.2 8.5 3.3l5.7-5.7C34.4 5.1 29.5 3 24 3 12.4 3 3 12.4 3 24s9.4 21 21 21c11.6 0 21-9.4 21-21 0-1.2-.1-2.5-.4-3.7z"/>
  <path fill="#FF3D00" d="M6.3 14.7l6.6 4.8C14.4 16.1 18.8 13 24 13c3.2 0 6.2 1.2 8.5 3.3l5.7-5.7C34.4 5.1 29.5 3 24 3 16 3 8.9 7.1 6.3 14.7z"/>
  <path fill="#4CAF50" d="M24 45c5.5 0 10.5-2.1 14.3-5.6l-6.6-5.4C29.5 35.8 26.9 37 24 37c-5.2 0-9.6-3.1-11.4-7.5l-6.5 5C8.9 40.9 16 45 24 45z"/>
  <path fill="#1976D2" d="M43.6 20.5H42V20H24v8h11.3c-1.6 4.6-6 8-11.3 8-5.2 0-9.6-3.1-11.4-7.5l-6.5 5C8.9 40.9 16 45 24 45c11.6 0 21-9.4 21-21 0-1.2-.1-2.5-.4-3.7z"/>
</svg>